<svg width="512" height="512" viewBox="0 0 512 512" fill="none" xmlns="http://www.w3.org/2000/svg">
<path d="M379.5 367.4C375.6 367.4 372.5 364.3 372.5 360.4C372.5 356.5 375.6 353.4 379.5 353.4H419.9C419.2 350.2 418.3 347.1 417.1 344.1L374.1 237.8C365.6 216.9 345.3 203.2 322.8 203.2H311.9V169.8C275.1 155.2 239 154.6 203.7 169.8V203.2H189.3C166.7 203.2 146.5 216.9 138 237.8L94.9999 344.1C92.2999 350.8 90.8999 357.9 90.8999 364.9C90.8999 379.3 96.4999 393.4 107.1 404C117.5 414.4 131.6 420.2 146.2 420.2H365.7C380.4 420.2 394.5 414.4 404.8 404C414.8 394 420.3 380.9 420.9 367.4H420.8H379.5ZM322.9 342.4H285.5V379.8H226.6V342.4H189.2V283.5H226.6V246.1H285.5V283.5H322.9V342.4ZM355.9 361.8C355.8 362.3 355.7 362.7 355.5 363.1C355.3 363.5 355.1 363.9 354.9 364.3C354.6 364.7 354.4 365 354 365.4C352.7 366.7 350.9 367.4 349 367.4C348.5 367.4 348.1 367.4 347.6 367.3C347.2 367.2 346.7 367.1 346.3 366.9C345.9 366.7 345.5 366.5 345.1 366.3C344.7 366 344.4 365.8 344 365.4C342.7 364.1 342 362.3 342 360.4C342 358.6 342.8 356.7 344 355.4C344.3 355.1 344.7 354.8 345.1 354.5C345.5 354.2 345.9 354 346.3 353.9C346.7 353.7 347.2 353.6 347.6 353.5C349.9 353 352.3 353.8 353.9 355.4C354.2 355.7 354.5 356.1 354.8 356.5C355.1 356.9 355.3 357.3 355.4 357.7C355.6 358.1 355.7 358.6 355.8 359C355.9 359.5 355.9 359.9 355.9 360.4C356 360.9 356 361.3 355.9 361.8Z" fill="#457156"/>
<path d="M213.3 434.2H156.9V452.9H213.3V434.2Z" fill="#66B17B"/>
<path d="M355.1 434.2H298.7V452.9H355.1V434.2Z" fill="#66B17B"/>
<path d="M457.7 104.7C456.7 103.8 455.7 103 454.7 102.2C445.9 98.2 437 94.6 428.1 91.2C315.8 48.4 196.2 48.4 84 91.2C75.1 94.6 66.2 98.3 57.4 102.2C56.4 103 55.3 103.8 54.4 104.7C41.9 115.4 34 131.2 34 148.9C34 181.1 60.1 207.2 92.3 207.2C124.5 207.2 150.5 181.1 150.5 148.9C150.5 143.5 149.7 138.2 148.4 133.2C219.5 114.2 292.5 114.2 363.6 133.2C362.2 138.2 361.5 143.5 361.5 148.9C361.5 181.1 387.6 207.2 419.8 207.2C452 207.2 478.1 181.1 478.1 148.9C478 131.2 470.1 115.4 457.7 104.7Z" fill="#66B17B"/>
</svg>
