<svg width="512" height="512" viewBox="0 0 512 512" fill="none" xmlns="http://www.w3.org/2000/svg">
<path d="M281.6 76.7V67.3C281.6 61.9 286 57.5 291.4 57.5C296.8 57.5 301.2 53.1 301.2 47.7V31.8C301.2 26.4 296.8 22 291.4 22H220.6C215.2 22 210.8 26.4 210.8 31.8V47.5C210.8 52.9 215.2 57.3 220.6 57.3C226 57.3 230.4 61.7 230.4 67.1V76.5C127.8 89.3 48.4 176.8 48.6 282.9C48.7 397.6 141.3 490 256 490C370.6 490 463.4 397.1 463.4 282.6C463.4 176.7 384.1 89.3 281.6 76.7ZM256 447C165.2 447 91.6 373.4 91.6 282.6C91.6 191.8 165.2 118.2 256 118.2C346.8 118.2 420.4 191.8 420.4 282.6C420.4 373.4 346.8 447 256 447Z" fill="#457156"/>
<path d="M256 175.4C259.9 175.4 263 172.3 263 168.4V147.5C263 143.6 259.9 140.5 256 140.5C252.1 140.5 249 143.6 249 147.5V168.4C249 172.3 252.1 175.4 256 175.4Z" fill="#457156"/>
<path d="M336.7 208.9C338.5 208.9 340.3 208.2 341.6 206.9L356.3 192.2C359 189.5 359 185 356.3 182.3C353.6 179.6 349.1 179.6 346.4 182.3L331.7 197C329 199.7 329 204.2 331.7 206.9C333.1 208.2 334.9 208.9 336.7 208.9Z" fill="#457156"/>
<path d="M391 275.6H370.1C366.2 275.6 363.1 278.7 363.1 282.6C363.1 286.5 366.2 289.6 370.1 289.6H391C394.9 289.6 398 286.5 398 282.6C398 278.7 394.8 275.6 391 275.6Z" fill="#457156"/>
<path d="M341.6 358.3C338.9 355.6 334.4 355.6 331.7 358.3C329 361 329 365.5 331.7 368.2L346.4 382.9C347.8 384.3 349.6 384.9 351.3 384.9C353 384.9 354.9 384.2 356.2 382.9C358.9 380.2 358.9 375.7 356.2 373L341.6 358.3Z" fill="#457156"/>
<path d="M256 389.7C252.1 389.7 249 392.8 249 396.7V417.6C249 421.5 252.1 424.6 256 424.6C259.9 424.6 263 421.5 263 417.6V396.7C263 392.8 259.9 389.7 256 389.7Z" fill="#457156"/>
<path d="M170.4 358.3L155.7 373C153 375.7 153 380.2 155.7 382.9C157.1 384.3 158.9 384.9 160.6 384.9C162.3 384.9 164.2 384.2 165.5 382.9L180.2 368.2C182.9 365.5 182.9 361 180.2 358.3C177.5 355.6 173.1 355.6 170.4 358.3Z" fill="#457156"/>
<path d="M141.9 275.6H121C117.1 275.6 114 278.7 114 282.6C114 286.5 117.1 289.6 121 289.6H141.9C145.8 289.6 148.9 286.5 148.9 282.6C148.9 278.7 145.7 275.6 141.9 275.6Z" fill="#457156"/>
<path d="M170.4 206.8C171.8 208.2 173.6 208.8 175.3 208.8C177 208.8 178.9 208.1 180.2 206.7C182.9 204 182.9 199.5 180.2 196.8L165.5 182.1C162.8 179.4 158.3 179.4 155.6 182.1C152.9 184.8 152.9 189.3 155.6 192L170.4 206.8Z" fill="#457156"/>
<path d="M256 229.5C239.1 212.6 211.8 212.6 195 229.5C182.3 242.2 179.2 260.8 185.6 276.4C186.6 275.9 187.6 275.6 188.8 275.6H227.5C231.4 275.6 234.5 278.7 234.5 282.6C234.5 286.5 231.4 289.6 227.5 289.6H194.2C194.5 289.9 194.8 290.2 195.1 290.5L256.1 351.5L317.1 290.5C334 273.6 334 246.3 317.1 229.5C300.2 212.6 272.9 212.6 256 229.5ZM259.1 283.9C259 284.4 258.9 284.8 258.7 285.2C258.5 285.6 258.3 286 258.1 286.4C257.8 286.8 257.6 287.1 257.2 287.5C256.9 287.8 256.5 288.1 256.1 288.4C255.7 288.7 255.3 288.9 254.9 289C254.5 289.2 254 289.3 253.6 289.4C253.2 289.5 252.7 289.5 252.2 289.5C251.8 289.5 251.3 289.5 250.8 289.4C250.3 289.3 249.9 289.2 249.5 289C249.1 288.8 248.7 288.6 248.3 288.4C247.9 288.1 247.6 287.9 247.2 287.5C246.9 287.2 246.6 286.8 246.3 286.4C246 286 245.8 285.6 245.7 285.2C245.5 284.8 245.4 284.3 245.3 283.9C245.2 283.5 245.2 283 245.2 282.5C245.2 282 245.3 281.6 245.3 281.1C245.4 280.6 245.5 280.2 245.7 279.8C245.9 279.4 246.1 279 246.3 278.6C246.6 278.2 246.8 277.9 247.2 277.5C247.5 277.2 247.9 276.9 248.3 276.6C248.7 276.3 249.1 276.1 249.5 275.9C249.9 275.7 250.4 275.6 250.8 275.5C251.7 275.3 252.6 275.3 253.5 275.5C254 275.6 254.4 275.7 254.8 275.9C255.2 276.1 255.6 276.3 256 276.6C256.4 276.9 256.7 277.1 257.1 277.5C257.4 277.8 257.7 278.2 258 278.6C258.3 279 258.5 279.4 258.6 279.8C258.8 280.2 258.9 280.7 259 281.1C259.1 281.5 259.1 282 259.1 282.5C259.2 283 259.2 283.5 259.1 283.9Z" fill="#66B17B"/>
</svg>
