<?xml version="1.0" encoding="UTF-8"?>
<svg xmlns="http://www.w3.org/2000/svg" xmlns:xlink="http://www.w3.org/1999/xlink" viewBox="0 0 50 50" width="50px" height="50px">
<g id="surface28717760">
<path style=" stroke:none;fill-rule:nonzero;fill:rgb(100%,100%,100%);fill-opacity:1;" d="M 9 4 C 6.238281 4 4 6.238281 4 9 L 4 41 C 4 43.761719 6.238281 46 9 46 L 41 46 C 43.761719 46 46 43.761719 46 41 L 46 9 C 46 6.238281 43.761719 4 41 4 Z M 25 9 C 29.421875 9 33 12.578125 33 17 C 33 21.421875 29.421875 25 25 25 C 20.578125 25 17 21.421875 17 17 C 17 12.578125 20.578125 9 25 9 Z M 25 13 C 22.789062 13 21 14.789062 21 17 C 21 19.210938 22.789062 21 25 21 C 27.210938 21 29 19.210938 29 17 C 29 14.789062 27.210938 13 25 13 Z M 33 26.492188 C 33.628906 26.492188 34.25 26.789062 34.640625 27.347656 C 35.269531 28.25 35.050781 29.5 34.140625 30.128906 C 32.640625 31.179688 30.988281 31.941406 29.25 32.417969 L 34.410156 37.589844 C 35.199219 38.371094 35.199219 39.628906 34.410156 40.410156 C 34.019531 40.800781 33.511719 41 33 41 C 32.488281 41 31.980469 40.800781 31.589844 40.410156 L 25 33.828125 L 18.410156 40.410156 C 18.019531 40.800781 17.511719 41 17 41 C 16.488281 41 15.980469 40.800781 15.589844 40.410156 C 14.800781 39.628906 14.800781 38.371094 15.589844 37.589844 L 20.75 32.417969 C 19.019531 31.941406 17.367188 31.191406 15.867188 30.140625 C 14.96875 29.511719 14.738281 28.269531 15.367188 27.359375 C 15.757812 26.800781 16.378906 26.5 17.019531 26.5 C 17.410156 26.5 17.808594 26.621094 18.160156 26.859375 C 20.171875 28.257812 22.539062 29 25 29 C 27.46875 29 29.839844 28.257812 31.859375 26.847656 C 32.199219 26.609375 32.601562 26.488281 33 26.488281 Z M 33 26.492188 "/>
</g>
</svg>
